<svg width="200" height="50" viewBox="0 0 200 50" fill="none" xmlns="http://www.w3.org/2000/svg">
<!-- <path d="M18.1648 18.4604H28.0111L19.7351 27.5003L28.2233 40.8692H18.6316L13.9207 33.1874L10.9922 36.031V40.8692H2.54646V10.0571H10.9922V27.0335L18.1648 18.4604ZM40.9901 17.9511C44.9229 17.9511 48.007 18.9555 50.2422 20.9644C52.5057 22.945 53.6375 25.8451 53.6375 29.6648C53.6375 33.4845 52.5057 36.3988 50.2422 38.4077C48.007 40.3882 44.9229 41.3785 40.9901 41.3785C37.0572 41.3785 33.9731 40.3882 31.7379 38.4077C29.5027 36.4271 28.3851 33.5128 28.3851 29.6648C28.3851 25.8168 29.5027 22.9026 31.7379 20.922C33.9731 18.9414 37.0572 17.9511 40.9901 17.9511ZM40.9901 23.6806C38.2172 23.6806 36.8308 25.2792 36.8308 28.4765V30.8956C36.8308 34.0645 38.2172 35.649 40.9901 35.649C43.7912 35.649 45.1917 34.0645 45.1917 30.8956V28.4765C45.1917 25.2792 43.7912 23.6806 40.9901 23.6806ZM73.16 17.9511C75.7631 17.9511 77.7153 18.6726 79.0169 20.1156C80.3184 21.5586 80.9692 23.6382 80.9692 26.3544V40.8692H72.5234V27.373C72.5234 26.411 72.2688 25.6471 71.7595 25.0812C71.2785 24.487 70.5853 24.1899 69.6798 24.1899C68.633 24.1899 67.7842 24.5295 67.1334 25.2085C66.4826 25.8876 66.1572 26.7222 66.1572 27.7125V40.8692H57.7115V18.4604H64.6294L65.1811 21.8557C66.0582 20.6673 67.2041 19.7195 68.6188 19.0121C70.0618 18.3048 71.5755 17.9511 73.16 17.9511ZM100.959 18.4604V24.1899H96.2051V32.7206C96.2051 33.7392 96.3749 34.4889 96.7144 34.9699C97.054 35.4227 97.6764 35.649 98.5818 35.649H100.959V40.6146C100.279 40.841 99.4024 41.0249 98.3272 41.1663C97.252 41.3078 96.3183 41.3785 95.5261 41.3785C93.0362 41.3785 91.1122 40.9258 89.7541 40.0204C88.4243 39.115 87.7594 37.573 87.7594 35.3944V24.1899H84.6187V18.4604H88.0989L89.9239 11.6698H96.2051V18.4604H100.959ZM118.501 17.9087C119.152 17.9087 119.732 17.9935 120.241 18.1633C120.75 18.3048 121.005 18.3897 121.005 18.418V25.5056H118.289C116.535 25.5056 115.261 25.9583 114.469 26.8637C113.705 27.7691 113.323 29.1131 113.323 30.8956V40.8692H104.877V18.4604H111.795L112.347 21.8557C112.856 20.5542 113.663 19.578 114.766 18.9272C115.87 18.2482 117.115 17.9087 118.501 17.9087ZM135.517 17.9511C138.941 17.9511 141.728 18.5311 143.878 19.6912C146.028 20.8229 147.104 22.6762 147.104 25.251V33.9938C147.104 34.4748 147.217 34.8709 147.443 35.1822C147.669 35.4934 148.009 35.649 148.462 35.649H149.99V40.5297C149.905 40.5863 149.678 40.6853 149.31 40.8268C148.971 40.94 148.476 41.0532 147.825 41.1663C147.174 41.3078 146.424 41.3785 145.576 41.3785C143.935 41.3785 142.576 41.138 141.501 40.657C140.454 40.1478 139.733 39.4545 139.337 38.5774C138.262 39.4263 137.059 40.1053 135.729 40.6146C134.4 41.1239 132.843 41.3785 131.061 41.3785C125.798 41.3785 123.167 39.2848 123.167 35.0973C123.167 32.9186 123.747 31.2634 124.907 30.1317C126.095 28.9716 127.793 28.1794 130 27.755C132.207 27.3306 135.093 27.1184 138.658 27.1184V26.0149C138.658 25.1378 138.347 24.4729 137.724 24.0202C137.13 23.5675 136.352 23.3411 135.39 23.3411C134.513 23.3411 133.749 23.4967 133.098 23.808C132.476 24.1192 132.164 24.6143 132.164 25.2934V25.4632H123.846C123.818 25.3217 123.803 25.1236 123.803 24.869C123.803 22.7469 124.808 21.0634 126.817 19.8185C128.854 18.5736 131.754 17.9511 135.517 17.9511ZM138.658 31.1078C136.253 31.1078 134.47 31.3766 133.31 31.9142C132.178 32.4235 131.613 33.1167 131.613 33.9938C131.613 35.4085 132.575 36.1159 134.499 36.1159C135.602 36.1159 136.564 35.8188 137.385 35.2246C138.233 34.6304 138.658 33.8948 138.658 33.0177V31.1078ZM163.401 17.9511C166.4 17.9511 168.932 18.5453 170.997 19.7336C173.091 20.8937 174.138 22.7045 174.138 25.1661H166.287C166.287 24.3455 165.919 23.7655 165.183 23.426C164.674 23.1431 164.037 23.0016 163.273 23.0016C161.236 23.0016 160.217 23.4826 160.217 24.4446C160.217 24.9822 160.571 25.3641 161.278 25.5905C161.986 25.8168 163.146 26.0573 164.759 26.312C166.739 26.5949 168.394 26.9344 169.724 27.3306C171.054 27.6984 172.214 28.3774 173.204 29.3677C174.195 30.3297 174.69 31.6878 174.69 33.4421C174.69 36.2998 173.615 38.3369 171.464 39.5536C169.342 40.7702 166.555 41.3785 163.103 41.3785C161.123 41.3785 159.255 41.1097 157.501 40.5722C155.747 40.0063 154.318 39.1433 153.215 37.9833C152.111 36.8232 151.559 35.3519 151.559 33.5694H159.411V33.7392C159.439 34.7012 159.835 35.3802 160.599 35.7763C161.392 36.1441 162.226 36.3281 163.103 36.3281C165.452 36.3281 166.626 35.7763 166.626 34.6729C166.626 34.107 166.258 33.6967 165.523 33.4421C164.787 33.1874 163.584 32.9186 161.915 32.6357C159.906 32.2962 158.251 31.9283 156.95 31.5322C155.676 31.1361 154.559 30.4712 153.597 29.5375C152.635 28.5755 152.154 27.2457 152.154 25.548C152.154 22.8035 153.186 20.8512 155.252 19.6912C157.346 18.5311 160.062 17.9511 163.401 17.9511ZM193.632 18.4604V24.1899H188.879V32.7206C188.879 33.7392 189.049 34.4889 189.388 34.9699C189.728 35.4227 190.35 35.649 191.256 35.649H193.632V40.6146C192.953 40.841 192.076 41.0249 191.001 41.1663C189.926 41.3078 188.992 41.3785 188.2 41.3785C185.71 41.3785 183.786 40.9258 182.428 40.0204C181.098 39.115 180.433 37.573 180.433 35.3944V24.1899H177.293V18.4604H180.773L182.598 11.6698H188.879V18.4604H193.632Z" fill="#E6F369"/>
<path d="M19.7093 16.9128H29.5556L21.2796 25.9528L29.7678 39.3217H20.1762L15.4652 31.6399L12.5368 34.4834V39.3217H4.09102V8.50953H12.5368V25.4859L19.7093 16.9128ZM42.5346 16.4036C46.4675 16.4036 49.5515 17.408 51.7868 19.4169C54.0503 21.3974 55.182 24.2976 55.182 28.1173C55.182 31.937 54.0503 34.8512 51.7868 36.8601C49.5515 38.8407 46.4675 39.831 42.5346 39.831C38.6017 39.831 35.5177 38.8407 33.2825 36.8601C31.0472 34.8795 29.9296 31.9653 29.9296 28.1173C29.9296 24.2693 31.0472 21.355 33.2825 19.3744C35.5177 17.3938 38.6017 16.4036 42.5346 16.4036ZM42.5346 22.1331C39.7618 22.1331 38.3754 23.7317 38.3754 26.9289V29.3481C38.3754 32.517 39.7618 34.1015 42.5346 34.1015C45.3357 34.1015 46.7363 32.517 46.7363 29.3481V26.9289C46.7363 23.7317 45.3357 22.1331 42.5346 22.1331ZM74.7046 16.4036C77.3076 16.4036 79.2599 17.1251 80.5614 18.568C81.863 20.011 82.5137 22.0907 82.5137 24.8069V39.3217H74.068V25.8255C74.068 24.8635 73.8133 24.0995 73.304 23.5336C72.823 22.9395 72.1298 22.6424 71.2244 22.6424C70.1775 22.6424 69.3287 22.9819 68.6779 23.661C68.0272 24.34 67.7018 25.1747 67.7018 26.165V39.3217H59.256V16.9128H66.1739L66.7257 20.3081C67.6028 19.1198 68.7487 18.1719 70.1634 17.4646C71.6064 16.7572 73.1201 16.4036 74.7046 16.4036ZM102.503 16.9128V22.6424H97.7497V31.173C97.7497 32.1916 97.9195 32.9414 98.259 33.4224C98.5985 33.8751 99.221 34.1015 100.126 34.1015H102.503V39.0671C101.824 39.2934 100.947 39.4773 99.8717 39.6188C98.7966 39.7603 97.8629 39.831 97.0706 39.831C94.5808 39.831 92.6568 39.3783 91.2987 38.4729C89.9688 37.5675 89.3039 36.0254 89.3039 33.8468V22.6424H86.1633V16.9128H89.6435L91.4684 10.1223H97.7497V16.9128H102.503ZM120.045 16.3611C120.696 16.3611 121.276 16.446 121.786 16.6158C122.295 16.7572 122.55 16.8421 122.55 16.8704V23.9581H119.833C118.079 23.9581 116.806 24.4108 116.014 25.3162C115.25 26.2216 114.868 27.5655 114.868 29.3481V39.3217H106.422V16.9128H113.34L113.892 20.3081C114.401 19.0066 115.207 18.0305 116.311 17.3797C117.414 16.7006 118.659 16.3611 120.045 16.3611ZM137.062 16.4036C140.485 16.4036 143.272 16.9836 145.423 18.1436C147.573 19.2754 148.648 21.1287 148.648 23.7034V32.4463C148.648 32.9273 148.761 33.3234 148.988 33.6346C149.214 33.9458 149.553 34.1015 150.006 34.1015H151.534V38.9822C151.449 39.0388 151.223 39.1378 150.855 39.2793C150.515 39.3924 150.02 39.5056 149.37 39.6188C148.719 39.7603 147.969 39.831 147.12 39.831C145.479 39.831 144.121 39.5905 143.046 39.1095C141.999 38.6002 141.277 37.907 140.881 37.0299C139.806 37.8787 138.604 38.5578 137.274 39.0671C135.944 39.5763 134.388 39.831 132.605 39.831C127.343 39.831 124.711 37.7372 124.711 33.5497C124.711 31.3711 125.291 29.7159 126.451 28.5841C127.64 27.4241 129.337 26.6318 131.544 26.2074C133.751 25.783 136.637 25.5708 140.202 25.5708V24.4673C140.202 23.5902 139.891 22.9253 139.269 22.4726C138.674 22.0199 137.896 21.7936 136.934 21.7936C136.057 21.7936 135.293 21.9492 134.643 22.2604C134.02 22.5716 133.709 23.0668 133.709 23.7458V23.9156H125.39C125.362 23.7741 125.348 23.5761 125.348 23.3214C125.348 21.1994 126.352 19.5159 128.361 18.271C130.398 17.026 133.299 16.4036 137.062 16.4036ZM140.202 29.5603C137.797 29.5603 136.015 29.8291 134.855 30.3666C133.723 30.8759 133.157 31.5691 133.157 32.4463C133.157 33.861 134.119 34.5683 136.043 34.5683C137.147 34.5683 138.109 34.2712 138.929 33.677C139.778 33.0829 140.202 32.3472 140.202 31.4701V29.5603ZM164.945 16.4036C167.944 16.4036 170.477 16.9977 172.542 18.1861C174.636 19.3461 175.683 21.1569 175.683 23.6185H167.831C167.831 22.798 167.463 22.218 166.728 21.8784C166.218 21.5955 165.582 21.454 164.818 21.454C162.781 21.454 161.762 21.935 161.762 22.897C161.762 23.4346 162.116 23.8166 162.823 24.0429C163.53 24.2693 164.69 24.5098 166.303 24.7644C168.284 25.0474 169.939 25.3869 171.269 25.783C172.599 26.1508 173.759 26.8299 174.749 27.8202C175.739 28.7822 176.234 30.1403 176.234 31.8945C176.234 34.7522 175.159 36.7894 173.009 38.006C170.887 39.2227 168.1 39.831 164.648 39.831C162.667 39.831 160.8 39.5622 159.046 39.0246C157.292 38.4587 155.863 37.5958 154.759 36.4357C153.656 35.2757 153.104 33.8044 153.104 32.0218H160.956V32.1916C160.984 33.1536 161.38 33.8327 162.144 34.2288C162.936 34.5966 163.771 34.7805 164.648 34.7805C166.996 34.7805 168.171 34.2288 168.171 33.1253C168.171 32.5594 167.803 32.1492 167.067 31.8945C166.332 31.6399 165.129 31.3711 163.46 31.0881C161.451 30.7486 159.796 30.3808 158.494 29.9847C157.221 29.5886 156.103 28.9237 155.141 27.99C154.179 27.028 153.698 25.6981 153.698 24.0005C153.698 21.256 154.731 19.3037 156.796 18.1436C158.89 16.9836 161.606 16.4036 164.945 16.4036ZM195.177 16.9128V22.6424H190.424V31.173C190.424 32.1916 190.593 32.9414 190.933 33.4224C191.272 33.8751 191.895 34.1015 192.8 34.1015H195.177V39.0671C194.498 39.2934 193.621 39.4773 192.546 39.6188C191.47 39.7603 190.537 39.831 189.745 39.831C187.255 39.831 185.331 39.3783 183.973 38.4729C182.643 37.5675 181.978 36.0254 181.978 33.8468V22.6424H178.837V16.9128H182.317L184.142 10.1223H190.424V16.9128H195.177Z" fill="#BB6BD9"/> -->
<path d="M22.0257 14.5911H31.872L23.596 23.6311L32.0842 37H22.4926L17.7816 29.3182L14.8532 32.1617V37H6.40742V6.18783H14.8532V23.1642L22.0257 14.5911ZM44.851 14.0819C48.7839 14.0819 51.8679 15.0863 54.1032 17.0952C56.3667 19.0757 57.4984 21.9759 57.4984 25.7956C57.4984 29.6153 56.3667 32.5295 54.1032 34.5384C51.8679 36.519 48.7839 37.5093 44.851 37.5093C40.9182 37.5093 37.8341 36.519 35.5989 34.5384C33.3637 32.5578 32.246 29.6436 32.246 25.7956C32.246 21.9476 33.3637 19.0333 35.5989 17.0527C37.8341 15.0721 40.9182 14.0819 44.851 14.0819ZM44.851 19.8114C42.0782 19.8114 40.6918 21.41 40.6918 24.6072V27.0264C40.6918 30.1953 42.0782 31.7798 44.851 31.7798C47.6521 31.7798 49.0527 30.1953 49.0527 27.0264V24.6072C49.0527 21.41 47.6521 19.8114 44.851 19.8114ZM77.021 14.0819C79.624 14.0819 81.5763 14.8034 82.8778 16.2463C84.1794 17.6893 84.8301 19.7689 84.8301 22.4852V37H76.3844V23.5038C76.3844 22.5418 76.1297 21.7778 75.6204 21.2119C75.1394 20.6178 74.4462 20.3207 73.5408 20.3207C72.4939 20.3207 71.6451 20.6602 70.9944 21.3393C70.3436 22.0183 70.0182 22.853 70.0182 23.8433V37H61.5724V14.5911H68.4903L69.0421 17.9864C69.9192 16.7981 71.0651 15.8502 72.4798 15.1429C73.9228 14.4355 75.4365 14.0819 77.021 14.0819ZM104.819 14.5911V20.3207H100.066V28.8513C100.066 29.8699 100.236 30.6197 100.575 31.1007C100.915 31.5534 101.537 31.7798 102.443 31.7798H104.819V36.7454C104.14 36.9717 103.263 37.1556 102.188 37.2971C101.113 37.4386 100.179 37.5093 99.387 37.5093C96.8972 37.5093 94.9732 37.0566 93.6151 36.1512C92.2853 35.2458 91.6203 33.7037 91.6203 31.5251V20.3207H88.4797V14.5911H91.9599L93.7848 7.80058H100.066V14.5911H104.819ZM122.362 14.0394C123.013 14.0394 123.593 14.1243 124.102 14.2941C124.611 14.4355 124.866 14.5204 124.866 14.5487V21.6364H122.15C120.395 21.6364 119.122 22.0891 118.33 22.9945C117.566 23.8999 117.184 25.2438 117.184 27.0264V37H108.738V14.5911H115.656L116.208 17.9864C116.717 16.6849 117.524 15.7088 118.627 15.058C119.731 14.3789 120.975 14.0394 122.362 14.0394ZM139.378 14.0819C142.802 14.0819 145.589 14.6619 147.739 15.8219C149.889 16.9537 150.964 18.807 150.964 21.3817V30.1246C150.964 30.6056 151.078 31.0017 151.304 31.3129C151.53 31.6241 151.87 31.7798 152.323 31.7798H153.85V36.6605C153.766 36.7171 153.539 36.8161 153.171 36.9576C152.832 37.0707 152.337 37.1839 151.686 37.2971C151.035 37.4386 150.285 37.5093 149.437 37.5093C147.796 37.5093 146.437 37.2688 145.362 36.7878C144.315 36.2785 143.594 35.5853 143.198 34.7082C142.123 35.557 140.92 36.2361 139.59 36.7454C138.26 37.2546 136.704 37.5093 134.922 37.5093C129.659 37.5093 127.028 35.4155 127.028 31.228C127.028 29.0494 127.608 27.3942 128.768 26.2624C129.956 25.1024 131.654 24.3101 133.861 23.8857C136.068 23.4613 138.954 23.2491 142.519 23.2491V22.1456C142.519 21.2685 142.207 20.6036 141.585 20.1509C140.991 19.6982 140.213 19.4719 139.251 19.4719C138.374 19.4719 137.61 19.6275 136.959 19.9387C136.336 20.2499 136.025 20.7451 136.025 21.4241V21.5939H127.707C127.679 21.4524 127.664 21.2544 127.664 20.9997C127.664 18.8777 128.669 17.1942 130.678 15.9493C132.715 14.7043 135.615 14.0819 139.378 14.0819ZM142.519 27.2386C140.114 27.2386 138.331 27.5074 137.171 28.0449C136.039 28.5542 135.474 29.2474 135.474 30.1246C135.474 31.5393 136.436 32.2466 138.36 32.2466C139.463 32.2466 140.425 31.9495 141.245 31.3553C142.094 30.7612 142.519 30.0255 142.519 29.1484V27.2386ZM167.262 14.0819C170.261 14.0819 172.793 14.676 174.858 15.8644C176.952 17.0244 177.999 18.8352 177.999 21.2968H170.147C170.147 20.4763 169.78 19.8963 169.044 19.5567C168.535 19.2738 167.898 19.1323 167.134 19.1323C165.097 19.1323 164.078 19.6133 164.078 20.5753C164.078 21.1129 164.432 21.4949 165.139 21.7212C165.847 21.9476 167.007 22.1881 168.62 22.4427C170.6 22.7257 172.255 23.0652 173.585 23.4613C174.915 23.8291 176.075 24.5082 177.065 25.4985C178.056 26.4605 178.551 27.8186 178.551 29.5728C178.551 32.4305 177.476 34.4677 175.325 35.6843C173.203 36.901 170.416 37.5093 166.964 37.5093C164.984 37.5093 163.116 37.2405 161.362 36.7029C159.608 36.137 158.179 35.2741 157.076 34.114C155.972 32.954 155.42 31.4827 155.42 29.7001H163.272V29.8699C163.3 30.8319 163.696 31.511 164.46 31.9071C165.253 32.2749 166.087 32.4588 166.964 32.4588C169.313 32.4588 170.487 31.9071 170.487 30.8036C170.487 30.2377 170.119 29.8275 169.384 29.5728C168.648 29.3182 167.445 29.0494 165.776 28.7664C163.767 28.4269 162.112 28.0591 160.81 27.663C159.537 27.2669 158.42 26.602 157.458 25.6682C156.496 24.7063 156.015 23.3764 156.015 21.6788C156.015 18.9343 157.047 16.982 159.113 15.8219C161.207 14.6619 163.923 14.0819 167.262 14.0819ZM197.493 14.5911V20.3207H192.74V28.8513C192.74 29.8699 192.91 30.6197 193.249 31.1007C193.589 31.5534 194.211 31.7798 195.117 31.7798H197.493V36.7454C196.814 36.9717 195.937 37.1556 194.862 37.2971C193.787 37.4386 192.853 37.5093 192.061 37.5093C189.571 37.5093 187.647 37.0566 186.289 36.1512C184.959 35.2458 184.294 33.7037 184.294 31.5251V20.3207H181.154V14.5911H184.634L186.459 7.80058H192.74V14.5911H197.493Z" fill="black" stroke="white"/>
</svg>
